<svg width="219" height="48" viewBox="0 0 219 48" fill="none" xmlns="http://www.w3.org/2000/svg">
<path fill-rule="evenodd" clip-rule="evenodd" d="M20.4344 44.4543L30.1934 27.1043H23.5934L26.8734 21.2773H42.3734L39.0924 27.1203L33.4854 27.1033L23.5964 44.7203C34.6104 44.7203 43.6344 35.4773 43.6344 24.1843C43.6724 18.8178 41.5874 13.6538 37.8338 9.81816C34.0802 5.98254 28.9625 3.78633 23.5964 3.70834C22.8069 3.70588 22.0181 3.75666 21.2354 3.86034L11.3954 21.2773H23.5954L20.2954 27.1033H4.81838L17.4424 4.71534C13.1441 6.20468 9.45938 9.07419 6.96246 12.8766C4.46553 16.679 3.29675 21.2007 3.63828 25.7368C3.97981 30.2729 5.81246 34.5686 8.85059 37.9543C11.8887 41.34 15.9616 43.6254 20.4344 44.4543ZM23.5964 0.777344C36.1724 0.777344 46.4824 11.2833 46.4824 24.1843C46.4824 37.1153 36.1724 47.6393 23.5974 47.6393C10.9904 47.6403 0.734375 37.1153 0.734375 24.1843C0.734375 11.2833 10.9904 0.777344 23.5964 0.777344Z" fill="#0C0D0D"/>
<path fill-rule="evenodd" clip-rule="evenodd" d="M54.8838 35.5673H68.0458L68.8248 31.8873H60.2148L64.3008 12.1953H59.7228L54.8838 35.5673Z" fill="#0C0D0D"/>
<path fill-rule="evenodd" clip-rule="evenodd" d="M84.0404 35.5679H88.9464L86.2944 31.6229C88.5066 29.2041 89.8838 26.1391 90.2234 22.8789H86.2284C86.1018 24.9042 85.4111 26.8537 84.2344 28.5069L80.9344 23.6509C83.9744 22.5119 86.8814 20.8399 86.8814 17.1219C86.8814 13.4359 83.2874 11.7969 80.5714 11.7969C77.1064 11.7969 73.7464 13.6969 73.7464 17.7209C73.7258 19.3218 74.2953 20.8742 75.3464 22.0819C72.0134 23.1129 69.0664 25.4579 69.0664 29.3399C69.0664 34.0659 72.9894 35.9749 77.0104 35.9749C79.2049 35.9892 81.3588 35.3836 83.2244 34.2279L84.0404 35.5679ZM81.2934 31.3149C80.1634 32.0983 78.8162 32.5075 77.4414 32.4849C75.2774 32.4849 73.4524 31.5539 73.4524 29.1029C73.4524 26.7279 75.3464 25.7599 77.2404 25.0219L81.2934 31.3149ZM83.0934 17.1149C83.0934 19.3549 80.8034 20.3269 79.1364 20.7989C78.4585 19.9526 78.0382 18.9293 77.9254 17.8509C77.908 17.4727 77.9713 17.0952 78.1111 16.7434C78.251 16.3917 78.4641 16.0737 78.7364 15.8107C79.0086 15.5477 79.3338 15.3457 79.6902 15.2181C80.0466 15.0906 80.4261 15.0404 80.8034 15.0709C81.9124 15.0709 83.0934 15.5369 83.0934 17.1149Z" fill="#0C0D0D"/>
<path fill-rule="evenodd" clip-rule="evenodd" d="M89.6055 15.8813H95.7055L91.5565 35.5673H96.3295L100.479 15.8813H106.238L106.99 12.1953H90.3875L89.6055 15.8813Z" fill="#0C0D0D"/>
<path d="M116.644 12.2031H129.239L128.445 15.8841H120.473L119.261 21.6451H126.882L126.163 25.3271H118.512L116.418 35.5741H111.841L116.644 12.2031Z" fill="#0C0D0D"/>
<path d="M130.8 18.3256H135.185L131.585 35.5736H127.204L130.8 18.3256ZM132.4 10.8906H136.785L135.869 15.1786H131.488L132.4 10.8906Z" fill="#0C0D0D"/>
<path d="M138.033 20.8066C138.227 19.7656 138.393 18.8606 138.46 18.3266H142.737L142.45 19.9986H142.511C143.782 18.7281 145.488 17.9876 147.284 17.9266C148.021 17.8751 148.761 17.983 149.454 18.243C150.146 18.503 150.774 18.909 151.295 19.4334C151.816 19.9578 152.219 20.5882 152.474 21.2819C152.73 21.9756 152.834 22.7163 152.778 23.4536C152.722 24.7186 152.534 25.9744 152.218 27.2006L150.454 35.5736H146.074L147.709 27.4416C147.994 26.2532 148.161 25.0397 148.209 23.8186C148.226 23.4989 148.177 23.1791 148.063 22.8797C147.949 22.5804 147.774 22.3082 147.549 22.0807C147.324 21.8532 147.053 21.6754 146.755 21.5588C146.457 21.4421 146.138 21.3893 145.818 21.4036C142.779 21.4036 141.666 24.3216 141.112 26.9036L139.312 35.5746H134.926L138.033 20.8066Z" fill="#0C0D0D"/>
<path d="M164.226 32.9327H164.161C162.653 34.8747 161.149 35.9787 158.728 35.9787C155.69 35.9787 153.528 34.2347 153.528 31.0537C153.528 25.3617 159.741 24.9297 163.86 24.9297H165.395C165.506 24.447 165.551 23.9514 165.528 23.4567C165.528 21.7147 163.695 21.2057 162.16 21.2057C160.241 21.2314 158.351 21.6898 156.633 22.5467L157.255 18.9657C159.088 18.2926 161.024 17.9421 162.976 17.9297C166.346 17.9297 169.517 19.2037 169.517 23.2547C169.517 25.5627 167.85 32.3247 167.458 35.5777H163.758L164.226 32.9327ZM159.942 32.6997C163.21 32.6997 164.226 30.3857 164.91 27.5997H163.371C161.247 27.5997 157.718 27.9697 157.718 30.8837C157.739 31.151 157.814 31.4112 157.939 31.6487C158.063 31.8862 158.234 32.096 158.442 32.2654C158.65 32.4348 158.89 32.5603 159.148 32.6343C159.405 32.7082 159.675 32.7291 159.941 32.6957" fill="#0C0D0D"/>
<path d="M173.451 20.8068C173.644 19.7658 173.81 18.8608 173.873 18.3268H178.155L177.86 19.9988H177.927C179.197 18.7286 180.903 17.9881 182.699 17.9268C183.437 17.8749 184.177 17.9825 184.87 18.2422C185.562 18.502 186.191 18.9079 186.713 19.4323C187.235 19.9567 187.637 20.5872 187.894 21.2812C188.15 21.9751 188.254 22.7161 188.199 23.4538C188.144 24.7188 187.957 25.9747 187.641 27.2008L185.878 35.5738H181.497L183.129 27.4418C183.411 26.2532 183.577 25.0397 183.622 23.8188C183.64 23.4995 183.59 23.18 183.477 22.8809C183.364 22.5818 183.19 22.3097 182.965 22.0822C182.74 21.8546 182.47 21.6767 182.173 21.5599C181.875 21.443 181.556 21.3898 181.237 21.4038C178.195 21.4038 177.085 24.3218 176.527 26.9038L174.727 35.5748H170.348L173.451 20.8068Z" fill="#0C0D0D"/>
<path d="M202.843 22.2847C201.884 21.6885 200.772 21.3841 199.643 21.4087C196.143 21.4087 194.183 24.7627 194.183 28.0087C194.183 30.2517 194.903 32.4977 197.909 32.4977C199.147 32.4715 200.364 32.1742 201.474 31.6267L200.982 35.1787C199.66 35.7713 198.216 36.0453 196.768 35.9787C192.419 35.9787 189.607 32.9977 189.607 28.5417C189.607 22.5157 193.494 17.9297 199.542 17.9297C201.027 17.9364 202.503 18.1612 203.922 18.5967L202.843 22.2847Z" fill="#0C0D0D"/>
<path d="M206.641 28.3397C206.641 31.5227 208.304 32.6987 211.316 32.6987C213.108 32.672 214.872 32.2481 216.48 31.4577L215.924 35.0087C214.195 35.5982 212.388 35.9252 210.563 35.9787C205.724 35.9787 202.463 33.5657 202.463 28.4417C202.463 23.0827 206.513 17.9297 212.039 17.9297C216.187 17.9297 218.939 20.1097 218.939 24.4927C218.928 25.7869 218.784 27.0766 218.511 28.3417L206.641 28.3397ZM214.652 25.2597C214.718 24.8738 214.751 24.4831 214.752 24.0917C214.805 23.7093 214.77 23.3198 214.651 22.9527C214.531 22.5856 214.33 22.2504 214.062 21.9724C213.794 21.6944 213.467 21.4808 213.104 21.3478C212.742 21.2149 212.354 21.1659 211.97 21.2047C209.26 21.2047 208.08 22.8827 207.232 25.2597H214.652Z" fill="#0C0D0D"/>
</svg>
